PathFileType	4	(X/Y/Z)	/Users/itak/Documents/Research/Walk-IL/dataset/trc/00301_00010.trc
DataRate	CameraRate	NumFrames	NumMarkers	Units	OrigDataRate	OrigDataStartFrame	OrigNumFrames
100.000000	100.000000	4	56	mm	100.000000	246	394
Frame#	Time	RPSI			LPSI			L3			STRN			T10			C7			CLAV			RBAK			LBAK			LSHO			LUPA			LAEL			LAOL			LWTS			LWPS			LFRA			LIFD			LHPS			LHTS			RSHO			RUPA			RAEL			RAOL			RWTS			RWPS			RFRA			RIFD			RHTS			RHPS			RBHD			LFHD			RFHD			LBHD			LHIP			RASI			LASI			LKNE			LTHI			LANK			LTIP			LTOE			LMT1			LMT5			LHEE			RKNE			RTHI			RTIP			RTOE			RMT1			RMT5			RHIP			RANK			RHEE			*53			*54			*55			
		X1	Y1	Z1	X2	Y2	Z2	X3	Y3	Z3	X4	Y4	Z4	X5	Y5	Z5	X6	Y6	Z6	X7	Y7	Z7	X8	Y8	Z8	X9	Y9	Z9	X10	Y10	Z10	X11	Y11	Z11	X12	Y12	Z12	X13	Y13	Z13	X14	Y14	Z14	X15	Y15	Z15	X16	Y16	Z16	X17	Y17	Z17	X18	Y18	Z18	X19	Y19	Z19	X20	Y20	Z20	X21	Y21	Z21	X22	Y22	Z22	X23	Y23	Z23	X24	Y24	Z24	X25	Y25	Z25	X26	Y26	Z26	X27	Y27	Z27	X28	Y28	Z28	X29	Y29	Z29	X30	Y30	Z30	X31	Y31	Z31	X32	Y32	Z32	X33	Y33	Z33	X34	Y34	Z34	X35	Y35	Z35	X36	Y36	Z36	X37	Y37	Z37	X38	Y38	Z38	X39	Y39	Z39	X40	Y40	Z40	X41	Y41	Z41	X42	Y42	Z42	X43	Y43	Z43	X44	Y44	Z44	X45	Y45	Z45	X46	Y46	Z46	X47	Y47	Z47	X48	Y48	Z48	X49	Y49	Z49	X50	Y50	Z50	X51	Y51	Z51	X52	Y52	Z52	X53	Y53	Z53	X54	Y54	Z54	X55	Y55	Z55	X56	Y56	Z56	

247	2.46	495.3360900878906	1002.687622070312	-1.826497316360474	320.461669921875	985.4979248046875	-4.428836822509766	406.5184326171875	1065.53369140625	-20.0447883605957	400.9888305664062	1245.713256835938	-273.4717407226562	412.8555603027344	1180.972778320312	-6.842997550964355	403.7494506835938	1427.555297851562	-47.80699157714844	402.3763732910156	1344.834350585938	-208.0350646972656	479.1157531738281	1286.356201171875	-2.79772424697876	298.1998291015625	1393.721801757812	-30.56972694396973	243.1540679931641	1401.963745117188	-121.6523971557617	165.8815002441406	1288.547729492188	-92.07914733886719	141.8202972412109	1087.258544921875	-101.0756912231445	203.3445739746094	1068.928955078125	-40.74016571044922	184.3081512451172	876.4952392578125	-207.7957153320312	120.2187271118164	861.388427734375	-176.6137084960938	127.7057266235352	986.1659545898438	-126.9957122802734	176.7876281738281	694.30224609375	-237.8480224609375	120.9674301147461	774.584716796875	-193.078369140625	161.8205108642578	783.066650390625	-244.783203125	557.0977783203125	1401.684692382812	-122.7555847167969	623.198974609375	1344.61572265625	-119.8738327026367	697.4147338867188	1086.56689453125	-132.5318298339844	608.2326049804688	1063.704345703125	-108.9353332519531	696.069580078125	898.7817993164062	-291.3346557617188	756.9169311523438	885.1720581054688	-232.841064453125	722.851806640625	1026.095581054688	-162.2559204101562	727.3856811523438	727.7396850585938	-354.8643188476562	739.7975463867188	802.3897705078125	-349.0662231445312	776.3327026367188	789.5508422851562	-289.6690368652344	480.5670471191406	1574.73583984375	-59.40374374389648	354.9203796386719	1639.044189453125	-218.7351379394531	447.4055480957031	1636.521850585938	-221.7228393554688	334.1535339355469	1569.362182617188	-57.65353393554688	225.3235321044922	937.4486083984375	-77.24649047851562	527.1976928710938	958.1843872070312	-224.1082305908203	276.6616516113281	952.442138671875	-213.3312683105469	225.7587432861328	491.2761840820312	-244.3414306640625	218.6694946289062	628.0188598632812	-204.130859375	205.7813568115234	195.1103057861328	89.57196044921875	205.3010101318359	333.3283996582031	-84.46619415283203	293.1131591796875	45.42983245849609	-30.60975646972656	320.3583984375	89.90615081787109	29.8079662322998	210.9305267333984	98.29329681396484	13.94797134399414	257.1291809082031	229.1281280517578	132.1875610351562	557.7431640625	485.4743041992188	-173.8272857666016	592.0792846679688	749.5762329101562	-177.8168640136719	541.0956420898438	363.7293395996094	-193.0858612060547	446.6109313964844	40.77603530883789	-343.3466186523438	414.2449645996094	41.58724975585938	-282.0685729980469	527.8397216796875	26.73260688781738	-258.3896789550781	599.4744873046875	957.6050415039062	-104.2992172241211	520.3058471679688	36.93771362304688	-153.9549407958984	476.0385437011719	37.69863128662109	-97.10490417480469	nan	nan	nan	nan	nan	nan	nan	nan	nan	
248	2.47	496.8120422363281	1002.595520019531	-4.618996143341064	321.9927368164062	985.2589111328125	-6.645122051239014	408.6447448730469	1065.713623046875	-22.29569625854492	401.3177185058594	1245.803955078125	-276.10546875	415.5169372558594	1180.9990234375	-9.666229248046875	406.2796020507812	1427.5947265625	-50.56802749633789	403.2344055175781	1344.909301757812	-210.6891632080078	482.0553588867188	1286.463012695312	-6.297061920166016	300.8915405273438	1393.792602539062	-32.25017547607422	244.7879638671875	1401.989135742188	-122.6998596191406	168.1939392089844	1288.391479492188	-91.93967437744141	144.5366973876953	1087.111694335938	-100.2197113037109	207.3214111328125	1068.79931640625	-41.25756454467773	184.9967956542969	877.0247802734375	-208.9031829833984	121.5707855224609	861.6460571289062	-176.3519134521484	129.8855590820312	986.1500854492188	-126.3097839355469	176.9578399658203	695.082275390625	-240.0868072509766	122.2682037353516	774.9530639648438	-193.3750915527344	161.7554779052734	783.8966064453125	-246.0480499267578	558.7579345703125	1401.73388671875	-127.1139678955078	624.8564453125	1344.583374023438	-125.2027893066406	699.8174438476562	1086.894165039062	-142.5699005126953	611.2678833007812	1063.413696289062	-117.4113235473633	695.0800170898438	902.2059936523438	-304.866943359375	757.531005859375	887.7453002929688	-248.2769165039062	724.7757568359375	1027.007446289062	-173.9412536621094	725.4180908203125	732.5201416015625	-372.6578063964844	737.6094970703125	807.2122192382812	-365.5991821289062	775.7921142578125	793.2229614257812	-307.5213623046875	482.8007202148438	1574.773559570312	-62.93998336791992	356.3990478515625	1639.103393554688	-221.6632232666016	448.8533630371094	1636.345947265625	-225.1730194091797	336.4364929199219	1569.715454101562	-60.34150314331055	226.9597625732422	937.4085083007812	-79.21546173095703	527.9752197265625	958.3956298828125	-226.8591613769531	277.4623107910156	952.7236328125	-215.4169158935547	228.1950073242188	492.2998657226562	-251.0417327880859	220.6396331787109	628.5833129882812	-208.9589385986328	210.0796356201172	190.0988159179688	78.25827789306641	208.6478729248047	331.4518127441406	-93.75647735595703	296.1184387207031	46.55553436279297	-49.79961013793945	324.0302734375	88.089111328125	12.23316764831543	214.7279510498047	97.18370056152344	-1.837945461273193	261.5760192871094	222.2467346191406	122.1673049926758	558.3536987304688	485.2350158691406	-173.9489898681641	592.7639770507812	749.2606811523438	-179.704833984375	541.484619140625	363.5437622070312	-192.9955139160156	446.4952392578125	40.67904281616211	-343.403564453125	414.1283569335938	41.47134399414062	-282.114501953125	527.7171020507812	26.82038307189941	-258.3859558105469	600.8064575195312	957.4993896484375	-107.296989440918	520.1262817382812	37.02081298828125	-153.9273681640625	475.764404296875	37.65783309936523	-97.07768249511719	nan	nan	nan	nan	nan	nan	nan	nan	nan	
249	2.48	498.2390747070312	1002.502685546875	-7.326757907867432	323.449462890625	985.0423583984375	-8.84955883026123	410.7012023925781	1065.935668945312	-24.54530715942383	401.6832580566406	1245.834594726562	-278.6317749023438	418.0202941894531	1180.990844726562	-12.46638298034668	408.6127014160156	1427.601684570312	-53.25830841064453	404.0701904296875	1344.935424804688	-213.2544860839844	484.8085632324219	1286.516479492188	-9.662408828735352	303.3961791992188	1393.81884765625	-33.96260452270508	246.3570556640625	1401.971557617188	-123.8216934204102	170.3640594482422	1288.221435546875	-91.9853515625	147.1014709472656	1086.924682617188	-99.60712432861328	211.0135803222656	1068.666748046875	-41.85683822631836	185.8348388671875	877.4282836914062	-209.9118957519531	122.9758987426758	861.7943115234375	-176.1832275390625	132.0193176269531	986.06103515625	-125.7976226806641	177.3691711425781	695.7183227539062	-242.148193359375	123.669059753418	775.1914672851562	-193.7079315185547	161.9316253662109	784.5869750976562	-247.1974182128906	560.3095092773438	1401.762817382812	-131.2466888427734	626.3858032226562	1344.52001953125	-130.2662048339844	701.9202880859375	1087.239379882812	-152.2444152832031	614.0098876953125	1063.149291992188	-125.667594909668	693.908935546875	905.7476196289062	-317.9017028808594	757.804443359375	890.4423217773438	-263.2021179199219	726.3861694335938	1027.973510742188	-185.2227172851562	723.1167602539062	737.4715576171875	-389.8475341796875	735.164794921875	812.1883544921875	-381.5486145019531	774.866943359375	796.9999389648438	-324.7881469726562	484.9059448242188	1574.778198242188	-66.33485412597656	357.7551574707031	1639.146118164062	-224.44287109375	450.1825866699219	1636.16943359375	-228.4704742431641	338.59375	1570.021362304688	-62.88542556762695	228.5704498291016	937.3897705078125	-81.14983367919922	528.7799072265625	958.4820556640625	-229.5388793945312	278.2318115234375	952.9339599609375	-217.4856414794922	230.4628601074219	493.2391662597656	-257.2355041503906	222.462646484375	629.111572265625	-213.4695587158203	214.4088897705078	184.5372772216797	66.85702514648438	211.8978729248047	329.2113952636719	-102.7710342407227	298.8448181152344	47.51123428344727	-68.80107879638672	327.5332336425781	85.82241821289062	-5.311561584472656	218.3606109619141	95.71791076660156	-17.49773979187012	266.1548767089844	214.7124938964844	111.9178161621094	558.9181518554688	485.0008239746094	-174.2424468994141	593.3981323242188	748.923095703125	-181.5701904296875	541.83203125	363.33935546875	-193.03955078125	446.3768615722656	40.57948684692383	-343.4569702148438	413.9949340820312	41.34556579589844	-282.1615600585938	527.5843505859375	26.89929008483887	-258.3757934570312	602.0293579101562	957.3328857421875	-110.2340621948242	519.9454345703125	37.09006881713867	-153.9050445556641	475.5293884277344	37.60120010375977	-97.02346038818359	nan	nan	nan	nan	nan	nan	nan	nan	nan	
250	2.49	499.6135864257812	1002.405517578125	-9.938639640808105	324.8376159667969	984.8404541015625	-11.03290367126465	412.6740417480469	1066.1728515625	-26.80509567260742	402.0871276855469	1245.80419921875	-281.0577392578125	420.3756408691406	1180.96533203125	-15.22920513153076	410.7633056640625	1427.584350585938	-55.88254165649414	404.8912963867188	1344.912231445312	-215.7385864257812	487.3946533203125	1286.526489257812	-12.90596294403076	305.7158508300781	1393.807983398438	-35.70702362060547	247.8652191162109	1401.915893554688	-125.0213851928711	172.4054412841797	1288.047485351562	-92.22496795654297	149.4932708740234	1086.706420898438	-99.25018310546875	214.3955841064453	1068.538696289062	-42.53576278686523	186.8026275634766	877.705322265625	-210.8314056396484	124.4231796264648	861.8307495117188	-176.1174774169922	134.0906219482422	985.9104614257812	-125.4701156616211	178.0305328369141	696.1962890625	-244.0023040771484	125.1669006347656	775.2959594726562	-194.0654449462891	162.3519287109375	785.1187744140625	-248.2271423339844	561.7603759765625	1401.784545898438	-135.1811370849609	627.8024291992188	1344.444213867188	-135.1024169921875	703.7131958007812	1087.601806640625	-161.5244750976562	616.45654296875	1062.92822265625	-133.6555938720703	692.5753173828125	909.4110107421875	-330.4068298339844	757.739990234375	893.2543334960938	-277.5693054199219	727.6771850585938	1028.9921875	-196.0545043945312	720.5093383789062	742.5963134765625	-406.3973693847656	732.5042724609375	817.3073120117188	-396.8795776367188	773.5819702148438	800.8768920898438	-341.4197387695312	486.8827209472656	1574.758544921875	-69.59149932861328	358.9874877929688	1639.17578125	-227.0778045654297	451.3930358886719	1636.003295898438	-231.6187896728516	340.6242065429688	1570.279541015625	-65.29094696044922	230.1121826171875	937.3745727539062	-83.04438018798828	529.6254272460938	958.4596557617188	-232.1456146240234	278.9989624023438	953.0800170898438	-219.5473480224609	232.5327606201172	494.0885009765625	-262.9104309082031	224.1200408935547	629.6018676757812	-217.6591339111328	218.7801971435547	178.4673767089844	55.37404251098633	215.0338134765625	326.6737670898438	-111.4751281738281	301.2705688476562	48.32370758056641	-87.60926055908203	330.8938903808594	83.09581756591797	-22.74482536315918	221.8061676025391	93.91561889648438	-33.01876068115234	270.8634033203125	206.5829467773438	101.4252853393555	559.4506225585938	484.770751953125	-174.7396545410156	593.9668579101562	748.5733032226562	-183.4687957763672	542.150634765625	363.1217041015625	-193.2299957275391	446.2609252929688	40.48159027099609	-343.5028686523438	413.8508605957031	41.21608352661133	-282.2081298828125	527.446533203125	26.96503829956055	-258.3600769042969	603.1383056640625	957.1218872070312	-113.1029663085938	519.7758178710938	37.14712905883789	-153.8897705078125	475.3388671875	37.53364944458008	-96.95286560058594	nan	nan	nan	nan	nan	nan	nan	nan	nan	
